<svg xmlns="http://www.w3.org/2000/svg" width="1120" height="620" viewBox="0 0 1120 620" role="img" aria-label="Oracle 配置截图">
  <defs>
    <linearGradient id="bg" x1="0" y1="0" x2="1" y2="1">
      <stop offset="0%" stop-color="#071713"/>
      <stop offset="54%" stop-color="#0c2923"/>
      <stop offset="100%" stop-color="#06100e"/>
    </linearGradient>
    <radialGradient id="glow" cx="46%" cy="48%" r="58%">
      <stop offset="0%" stop-color="#74f7d2" stop-opacity="0.28"/>
      <stop offset="52%" stop-color="#74f7d2" stop-opacity="0.08"/>
      <stop offset="100%" stop-color="#74f7d2" stop-opacity="0"/>
    </radialGradient>
    <pattern id="grid" width="44" height="44" patternUnits="userSpaceOnUse">
      <path d="M 44 0 L 0 0 0 44" fill="none" stroke="#b9fff1" stroke-opacity="0.08" stroke-width="1"/>
    </pattern>
    <filter id="shadow" x="-20%" y="-20%" width="140%" height="140%">
      <feDropShadow dx="0" dy="18" stdDeviation="24" flood-color="#000000" flood-opacity="0.35"/>
    </filter>
  </defs>
  <rect width="1120" height="620" rx="32" fill="url(#bg)"/>
  <rect width="1120" height="620" rx="32" fill="url(#grid)"/>
  <rect width="1120" height="620" rx="32" fill="url(#glow)"/>
  <rect x="28" y="28" width="1064" height="564" rx="24" fill="rgba(0,10,7,0.36)" stroke="rgba(116,247,210,0.22)"/>
  <g transform="translate(58 54)">
    <circle cx="0" cy="0" r="7" fill="#ff6b6b"/>
    <circle cx="24" cy="0" r="7" fill="#ffd166"/>
    <circle cx="48" cy="0" r="7" fill="#74f7d2"/>
  </g>
  <text x="560" y="62" text-anchor="middle" fill="#b9ccc8" font-size="21" font-family="ui-monospace, SFMono-Regular, Menlo, monospace">velamq.datasource</text>
  <text x="1024" y="63" fill="#74f7d2" font-size="18" font-weight="800" font-family="ui-monospace, SFMono-Regular, Menlo, monospace">READY</text>
  <line x1="28" y1="90" x2="1092" y2="90" stroke="rgba(116,247,210,0.18)"/>

  <g filter="url(#shadow)">
    <rect x="58" y="128" width="350" height="328" rx="22" fill="rgba(1,18,15,0.78)" stroke="rgba(116,247,210,0.28)"/>
    <text x="66" y="148" fill="#91aaa5" font-size="14" font-weight="800" font-family="ui-monospace, SFMono-Regular, Menlo, monospace">Enterprise SQL</text>
    <text x="66" y="124" fill="#74f7d2" font-size="13" font-weight="800" letter-spacing="2" font-family="ui-monospace, SFMono-Regular, Menlo, monospace">CONFIG FIELDS</text>
    
        <rect x="66" y="174" width="310" height="30" rx="15" fill="rgba(6, 24, 21, 0.82)" stroke="rgba(116,247,210,0.22)"/>
        <circle cx="86" cy="189" r="5" fill="#74f7d2"/>
        <text x="104" y="194" fill="#eafffb" font-size="14" font-family="ui-monospace, SFMono-Regular, Menlo, monospace">service_name</text>
        <rect x="66" y="217" width="310" height="30" rx="15" fill="rgba(6, 24, 21, 0.82)" stroke="rgba(116,247,210,0.22)"/>
        <circle cx="86" cy="232" r="5" fill="#9ee96f"/>
        <text x="104" y="237" fill="#eafffb" font-size="14" font-family="ui-monospace, SFMono-Regular, Menlo, monospace">wallet</text>
        <rect x="66" y="260" width="310" height="30" rx="15" fill="rgba(6, 24, 21, 0.82)" stroke="rgba(116,247,210,0.22)"/>
        <circle cx="86" cy="275" r="5" fill="#74f7d2"/>
        <text x="104" y="280" fill="#eafffb" font-size="14" font-family="ui-monospace, SFMono-Regular, Menlo, monospace">pool</text>
        <rect x="66" y="303" width="310" height="30" rx="15" fill="rgba(6, 24, 21, 0.82)" stroke="rgba(116,247,210,0.22)"/>
        <circle cx="86" cy="318" r="5" fill="#9ee96f"/>
        <text x="104" y="323" fill="#eafffb" font-size="14" font-family="ui-monospace, SFMono-Regular, Menlo, monospace">oci</text>
  </g>

  <g filter="url(#shadow)">
    <rect x="462" y="154" width="258" height="206" rx="26" fill="rgba(4,26,22,0.92)" stroke="rgba(116,247,210,0.34)"/>
    <rect x="550" y="184" width="82" height="82" rx="20" fill="rgba(116,247,210,0.08)" stroke="#74f7d2"/>
    <path d="M572 244 C586 238 591 216 604 210 C610 216 607 228 622 234 C612 248 592 252 572 244Z" fill="#74f7d2" opacity="0.75"/>
    <circle cx="580" cy="240" r="5" fill="#eafffb"/>
    <circle cx="602" cy="224" r="5" fill="#eafffb"/>
    <circle cx="618" cy="209" r="5" fill="#eafffb"/>
    <path d="M580 240 L602 224 L618 209" fill="none" stroke="#07211d" stroke-width="4"/>
    <text x="591" y="300" text-anchor="middle" fill="#ffffff" font-size="38" font-weight="900" font-family="Inter, ui-sans-serif, system-ui">VelaMQ</text>
    <text x="591" y="330" text-anchor="middle" fill="#a8bbb7" font-size="17" font-family="Inter, ui-sans-serif, system-ui">企业既有业务库</text>
  </g>

  <path d="M408 292 C430 292 438 256 462 256" stroke="#74f7d2" stroke-opacity="0.48" stroke-width="3" fill="none" stroke-dasharray="10 14"/>
  <path d="M720 256 C750 256 770 214 808 214" stroke="#9ee96f" stroke-opacity="0.62" stroke-width="3" fill="none" stroke-dasharray="10 14"/>
  <path d="M720 298 C762 320 780 320 824 308" stroke="#74f7d2" stroke-opacity="0.42" stroke-width="3" fill="none" stroke-dasharray="10 14"/>
  <circle cx="408" cy="292" r="8" fill="#74f7d2"/>
  <circle cx="720" cy="256" r="8" fill="#9ee96f"/>

  <g filter="url(#shadow)">
    <rect x="808" y="146" width="236" height="90" rx="18" fill="rgba(1,18,15,0.82)" stroke="rgba(116,247,210,0.28)"/>
    <text x="828" y="180" fill="#74f7d2" font-size="14" font-weight="800" font-family="ui-monospace, SFMono-Regular, Menlo, monospace">DATASOURCE</text>
    <text x="828" y="210" fill="#ffffff" font-size="24" font-weight="900" font-family="Inter, ui-sans-serif, system-ui">Oracle</text>
    <rect x="808" y="258" width="236" height="92" rx="18" fill="rgba(1,18,15,0.82)" stroke="rgba(116,247,210,0.28)"/>
    <text x="828" y="292" fill="#74f7d2" font-size="14" font-weight="800" font-family="ui-monospace, SFMono-Regular, Menlo, monospace">ACTION ROUTE</text>
    <text x="828" y="322" fill="#ffffff" font-size="24" font-weight="900" font-family="Inter, ui-sans-serif, system-ui">规则动作绑定</text>
  </g>

  <text x="470" y="510" fill="#91aaa5" font-size="13" font-weight="800" letter-spacing="2" font-family="ui-monospace, SFMono-Regular, Menlo, monospace">DELIVERY PATH</text>
  
        <rect x="470" y="288" width="112" height="38" rx="19" fill="rgba(116,247,210,0.1)" stroke="rgba(116,247,210,0.28)"/>
        <text x="526" y="312" text-anchor="middle" fill="#d8fff6" font-size="13" font-family="ui-monospace, SFMono-Regular, Menlo, monospace">Rule</text>
        <rect x="608" y="288" width="112" height="38" rx="19" fill="rgba(116,247,210,0.1)" stroke="rgba(116,247,210,0.28)"/>
        <text x="664" y="312" text-anchor="middle" fill="#d8fff6" font-size="13" font-family="ui-monospace, SFMono-Regular, Menlo, monospace">OCI</text>
        <rect x="746" y="288" width="112" height="38" rx="19" fill="rgba(116,247,210,0.1)" stroke="rgba(116,247,210,0.28)"/>
        <text x="802" y="312" text-anchor="middle" fill="#d8fff6" font-size="13" font-family="ui-monospace, SFMono-Regular, Menlo, monospace">Oracle</text>
</svg>